<svg xmlns="http://www.w3.org/2000/svg" xmlns:xlink="http://www.w3.org/1999/xlink" version="1.1" xml:space="preserve" viewBox="0 0 1080 1080">
<desc>Created with Fabric.js 4.2.0</desc>
<defs>
</defs>
<g transform="matrix(1 0 0 1 540 540)" id="ff34a6ab-0b75-4820-8fdc-fa773cc4215b">
<rect style="stroke: none; stroke-width: 1; stroke-dasharray: none; stroke-linecap: butt; stroke-dashoffset: 0; stroke-linejoin: miter; stroke-miterlimit: 4; fill: rgb(255,255,255); fill-rule: nonzero; opacity: 1;" vector-effect="non-scaling-stroke" x="-540" y="-540" rx="0" ry="0" width="1080" height="1080"/>
</g>
<g transform="matrix(Infinity NaN NaN Infinity 0 0)" id="73d8eaa8-528a-45ed-bf33-7b66b676819d">
</g>
<g transform="matrix(5.33 0 0 5.33 447.3 393.19)">
<g style="" vector-effect="non-scaling-stroke">
		<g transform="matrix(1 0 0 1 20 16)">
<path style="stroke: none; stroke-width: 1; stroke-dasharray: none; stroke-linecap: round; stroke-dashoffset: 0; stroke-linejoin: round; stroke-miterlimit: 4; fill: rgb(66,133,244); fill-rule: nonzero; opacity: 1;" vector-effect="non-scaling-stroke" transform=" translate(-60, -56)" d="M 40 48 L 80 48 L 80 32 L 40 32 L 40 48 z M 40 80 L 80 80 L 80 64 L 40 64 L 40 80 z" stroke-linecap="round"/>
</g>
		<g transform="matrix(1 0 0 1 -20 0)">
<path style="stroke: none; stroke-width: 1; stroke-dasharray: none; stroke-linecap: round; stroke-dashoffset: 0; stroke-linejoin: round; stroke-miterlimit: 4; fill: rgb(102,157,246); fill-rule: nonzero; opacity: 1;" vector-effect="non-scaling-stroke" transform=" translate(-20, -40)" d="M 24 80 L 40 80 L 40 64 L 24 64 L 24 80 z M 0 0 L 24 0 L 24 16 L 0 16 z M 0 32 L 40 32 L 40 48 L 0 48 z" stroke-linecap="round"/>
</g>
</g>
</g>
<g transform="matrix(0.57 0 0 0.57 541 334.56)">
<g style="" vector-effect="non-scaling-stroke">
		<g transform="matrix(1 0 0 1 -185.18 47.26)">
<path style="stroke: rgb(0,0,0); stroke-width: 6; stroke-dasharray: none; stroke-linecap: round; stroke-dashoffset: 0; stroke-linejoin: round; stroke-miterlimit: 10; fill: rgb(255,255,255); fill-rule: nonzero; opacity: 1;" vector-effect="non-scaling-stroke" transform=" translate(-94.44, -375.54)" d="M 115.612 355.432 C 102.234 357.308 86.654 361.18600000000004 78.54599999999999 366.11600000000004 C 71.20899999999999 370.57900000000006 72.172 383.71600000000007 77.392 390.21500000000003 C 82.901 397.07700000000006 89.366 396.71000000000004 97.17099999999999 393.12 C 102.294 390.763 108.464 385.511 114.838 379.628 C 114.99799999999999 374.502 115.17699999999999 369.37199999999996 115.381 364.253 C 115.502 361.214 115.577 358.278 115.612 355.432 z" stroke-linecap="round"/>
</g>
		<g transform="matrix(1 0 0 1 206 42.99)">
<path style="stroke: rgb(0,0,0); stroke-width: 6; stroke-dasharray: none; stroke-linecap: round; stroke-dashoffset: 0; stroke-linejoin: round; stroke-miterlimit: 10; fill: rgb(255,255,255); fill-rule: nonzero; opacity: 1;" vector-effect="non-scaling-stroke" transform=" translate(-485.61, -371.27)" d="M 499.977 361.616 C 492.477 357.056 478.58799999999997 353.399 465.95899999999995 351.39 C 466.2749999999999 358.20599999999996 466.7099999999999 365.7 467.29799999999994 374.15299999999996 C 467.40399999999994 375.67999999999995 467.50899999999996 377.186 467.61099999999993 378.68199999999996 C 472.56999999999994 383.061 477.29099999999994 386.74999999999994 481.35099999999994 388.61899999999997 C 489.15799999999996 392.21 495.6209999999999 392.577 501.12999999999994 385.715 C 506.351 379.216 507.314 366.077 499.977 361.616 z" stroke-linecap="round"/>
</g>
		<g transform="matrix(1 0 0 1 -121.53 301.55)">
<path style="stroke: rgb(0,0,0); stroke-width: 6; stroke-dasharray: none; stroke-linecap: round; stroke-dashoffset: 0; stroke-linejoin: round; stroke-miterlimit: 10; fill: rgb(255,255,255); fill-rule: nonzero; opacity: 1;" vector-effect="non-scaling-stroke" transform=" translate(-158.09, -629.83)" d="M 125.43 629.265 C 115.57600000000001 646.786 141.33 661.216 154.68 649.066 C 165.588 639.138 174.198 630.7180000000001 192.936 627.9680000000001 C 178.586 622.0620000000001 165.936 614.6870000000001 155.184 606.0970000000001 C 142.067 611.226 131.448 618.566 125.43 629.265 z" stroke-linecap="round"/>
</g>
		<g transform="matrix(1 0 0 1 147.07 296.37)">
<path style="stroke: rgb(0,0,0); stroke-width: 6; stroke-dasharray: none; stroke-linecap: round; stroke-dashoffset: 0; stroke-linejoin: round; stroke-miterlimit: 10; fill: rgb(255,255,255); fill-rule: nonzero; opacity: 1;" vector-effect="non-scaling-stroke" transform=" translate(-426.68, -624.65)" d="M 424.005 644.267 C 435.042 658.5500000000001 462.465 645.5790000000001 454.448 627.1460000000001 C 449.181 615.0350000000001 439.22999999999996 604.9900000000001 426.77099999999996 598.951 C 418.61299999999994 606.5690000000001 408.92199999999997 613.64 397.46299999999997 619.818 C 410.143 625.823 416.355 634.367 424.005 644.267 z" stroke-linecap="round"/>
</g>
		<g transform="matrix(1 0 0 1 -198.41 54.49)">
<path style="stroke: rgb(0,0,0); stroke-width: 6; stroke-dasharray: none; stroke-linecap: round; stroke-dashoffset: 0; stroke-linejoin: round; stroke-miterlimit: 10; fill: none; fill-rule: nonzero; opacity: 1;" vector-effect="non-scaling-stroke" transform=" translate(-81.2, -382.77)" d="M 75.308 386.816 C 78.641 384.419 80.99600000000001 381.825 87.09200000000001 378.719" stroke-linecap="round"/>
</g>
		<g transform="matrix(1 0 0 1 217.71 49.99)">
<path style="stroke: rgb(0,0,0); stroke-width: 6; stroke-dasharray: none; stroke-linecap: round; stroke-dashoffset: 0; stroke-linejoin: round; stroke-miterlimit: 10; fill: none; fill-rule: nonzero; opacity: 1;" vector-effect="non-scaling-stroke" transform=" translate(-497.32, -378.27)" d="M 503.215 382.316 C 499.88199999999995 379.919 497.527 377.325 491.43199999999996 374.219" stroke-linecap="round"/>
</g>
		<g transform="matrix(1 0 0 1 -142.63 310.47)">
<path style="stroke: rgb(0,0,0); stroke-width: 6; stroke-dasharray: none; stroke-linecap: round; stroke-dashoffset: 0; stroke-linejoin: round; stroke-miterlimit: 10; fill: none; fill-rule: nonzero; opacity: 1;" vector-effect="non-scaling-stroke" transform=" translate(-136.98, -638.75)" d="M 131.13 648.991 C 132.03 644.04 134.73 635.716 142.82999999999998 628.515" stroke-linecap="round"/>
</g>
		<g transform="matrix(1 0 0 1 162.26 308)">
<path style="stroke: rgb(0,0,0); stroke-width: 6; stroke-dasharray: none; stroke-linecap: round; stroke-dashoffset: 0; stroke-linejoin: round; stroke-miterlimit: 10; fill: none; fill-rule: nonzero; opacity: 1;" vector-effect="non-scaling-stroke" transform=" translate(-441.88, -636.28)" d="M 446.31 647.382 C 446.284 642.351 445.00600000000003 632.116 437.444 625.1869999999999" stroke-linecap="round"/>
</g>
		<g transform="matrix(1 0 0 1 -161.15 -189.53)">
<path style="stroke: rgb(0,0,0); stroke-width: 6; stroke-dasharray: none; stroke-linecap: round; stroke-dashoffset: 0; stroke-linejoin: round; stroke-miterlimit: 10; fill: rgb(208,182,152); fill-rule: nonzero; opacity: 1;" vector-effect="non-scaling-stroke" transform=" translate(-118.47, -138.75)" d="M 111.331 138.898 C 111.331 131.929 116.97200000000001 126.28 123.931 126.28 C 128.012 126.28 131.628 128.231 133.93099999999998 131.244 C 139.49999999999997 122.133 146.21399999999997 114.274 153.844 107.515 C 150.064 103.857 143.922 101.185 134.281 99.89 C 103.23100000000001 95.716 87.364 111.056 83.739 131.615 C 80.241 151.453 90.91000000000001 172.758 114.74300000000001 178.29700000000003 C 117.203 168.61200000000002 120.21700000000001 159.72800000000004 123.69300000000001 151.50400000000002 C 116.845 151.375 111.331 145.786 111.331 138.898 z" stroke-linecap="round"/>
</g>
		<g transform="matrix(1 0 0 1 -156.98 -189.39)">
<path style="stroke: none; stroke-width: 1; stroke-dasharray: none; stroke-linecap: butt; stroke-dashoffset: 0; stroke-linejoin: miter; stroke-miterlimit: 4; fill: rgb(0,0,0); fill-rule: nonzero; opacity: 1;" vector-effect="non-scaling-stroke" transform=" translate(-122.63, -138.89)" d="M 123.931 126.28 C 116.972 126.28 111.331 131.929 111.331 138.898 C 111.331 145.786 116.845 151.375 123.693 151.503 C 126.172 145.637 128.884 140.10399999999998 131.805 134.86499999999998 C 132.49200000000002 133.634 133.205 132.43099999999998 133.931 131.243 C 131.628 128.231 128.011 126.28 123.931 126.28 z" stroke-linecap="round"/>
</g>
		<g transform="matrix(1 0 0 1 169.28 -198.03)">
<path style="stroke: rgb(0,0,0); stroke-width: 6; stroke-dasharray: none; stroke-linecap: round; stroke-dashoffset: 0; stroke-linejoin: round; stroke-miterlimit: 10; fill: rgb(208,182,152); fill-rule: nonzero; opacity: 1;" vector-effect="non-scaling-stroke" transform=" translate(-448.9, -130.25)" d="M 484.238 123.515 C 480.613 102.955 464.746 87.616 433.697 91.78999999999999 C 422.932 93.237 416.531 96.39999999999999 412.908 100.73499999999999 C 419.77500000000003 106.66499999999999 426.165 113.47999999999999 432.18 121.25299999999999 C 432.472 121.62999999999998 432.75 122.01099999999998 433.03700000000003 122.38899999999998 C 435.333 119.29399999999998 439.00000000000006 117.27999999999999 443.14500000000004 117.27999999999999 C 450.10400000000004 117.27999999999999 455.74500000000006 122.92899999999999 455.74500000000006 129.898 C 455.74500000000006 136.007 451.4100000000001 141.1 445.65200000000004 142.264 C 449.92900000000003 150.547 453.39700000000005 159.46300000000002 456.17300000000006 169.406 C 477.937 162.855 487.59 142.516 484.238 123.515 z" stroke-linecap="round"/>
</g>
		<g transform="matrix(1 0 0 1 164.78 -198.51)">
<path style="stroke: none; stroke-width: 1; stroke-dasharray: none; stroke-linecap: butt; stroke-dashoffset: 0; stroke-linejoin: miter; stroke-miterlimit: 4; fill: rgb(0,0,0); fill-rule: nonzero; opacity: 1;" vector-effect="non-scaling-stroke" transform=" translate(-444.39, -129.77)" d="M 455.746 129.898 C 455.746 122.929 450.10499999999996 117.28 443.14599999999996 117.28 C 438.99999999999994 117.28 435.33399999999995 119.294 433.03799999999995 122.389 C 437.85299999999995 128.734 442.04499999999996 135.275 445.65299999999996 142.264 C 451.411 141.1 455.746 136.007 455.746 129.898 z" stroke-linecap="round"/>
</g>
		<g transform="matrix(1 0 0 1 9.77 27.51)">
<path style="stroke: rgb(0,0,0); stroke-width: 6; stroke-dasharray: none; stroke-linecap: round; stroke-dashoffset: 0; stroke-linejoin: round; stroke-miterlimit: 10; fill: rgb(208,182,152); fill-rule: nonzero; opacity: 1;" vector-effect="non-scaling-stroke" transform=" translate(-289.38, -355.79)" d="M 433.038 122.389 C 432.75100000000003 122.011 432.473 121.63 432.181 121.253 C 426.16499999999996 113.48 419.776 106.665 412.909 100.735 C 383.11199999999997 75.007 344.327 65.945 288.181 67.612 C 239.49899999999997 69.059 187.70799999999997 77.518 153.844 107.51499999999999 C 146.214 114.27299999999998 139.501 122.13199999999999 133.93099999999998 131.24399999999997 C 133.20499999999998 132.43199999999996 132.492 133.63499999999996 131.80499999999998 134.86599999999999 C 128.884 140.105 126.17199999999998 145.637 123.69299999999998 151.504 C 120.21699999999998 159.72799999999998 117.20299999999999 168.612 114.74299999999998 178.297 C 109.97599999999998 197.067 107.27999999999999 218.82999999999998 107.28099999999998 244.554 C 107.28299999999997 289.687 116.14699999999998 312.082 115.61299999999997 355.433 C 115.57799999999997 358.279 115.50299999999997 361.215 115.38199999999998 364.254 C 115.17799999999998 369.37300000000005 114.99899999999998 374.50300000000004 114.83899999999997 379.629 C 113.18599999999996 432.736 113.77699999999997 485.491 113.33999999999997 521.665 C 112.93899999999998 554.8689999999999 127.98599999999998 584.3689999999999 155.18499999999997 606.098 C 165.93699999999998 614.688 178.587 622.063 192.93699999999998 627.9689999999999 C 218.04999999999998 638.3059999999999 248.355 644.155 282.78099999999995 644.155 C 333.04599999999994 644.155 370.23699999999997 634.5029999999999 397.4649999999999 619.819 C 408.9239999999999 613.641 418.6139999999999 606.5699999999999 426.7729999999999 598.952 C 447.1319999999999 579.944 457.9429999999999 557.53 462.7819999999999 537.056 C 474.25199999999995 488.533 472.74799999999993 452.97600000000006 467.61299999999994 378.68500000000006 C 467.50999999999993 377.1890000000001 467.40599999999995 375.68300000000005 467.29999999999995 374.15600000000006 C 466.71199999999993 365.7030000000001 466.27799999999996 358.20900000000006 465.96099999999996 351.3930000000001 C 464.22799999999995 314.05000000000007 466.025 297.0760000000001 465.48199999999997 254.45600000000007 C 465.01899999999995 218.18500000000006 462.287 191.29500000000007 456.176 169.40900000000008 C 453.4 159.46700000000007 449.932 150.55100000000007 445.655 142.26700000000008 C 442.045 135.275 437.854 128.733 433.038 122.389 z" stroke-linecap="round"/>
</g>
		<g transform="matrix(1 0 0 1 -65.23 -172.27)">
<ellipse style="stroke: rgb(0,0,0); stroke-width: 6; stroke-dasharray: none; stroke-linecap: round; stroke-dashoffset: 0; stroke-linejoin: round; stroke-miterlimit: 10; fill: rgb(255,255,255); fill-rule: nonzero; opacity: 1;" vector-effect="non-scaling-stroke" cx="0" cy="0" rx="54.9" ry="53.1"/>
</g>
		<g transform="matrix(1 0 0 1 -94.03 -169.57)">
<circle style="stroke: none; stroke-width: 1; stroke-dasharray: none; stroke-linecap: butt; stroke-dashoffset: 0; stroke-linejoin: miter; stroke-miterlimit: 4; fill: rgb(0,0,0); fill-rule: nonzero; opacity: 1;" vector-effect="non-scaling-stroke" cx="0" cy="0" r="18.9"/>
</g>
		<g transform="matrix(1 0 0 1 -85.93 -165.07)">
<circle style="stroke: none; stroke-width: 1; stroke-dasharray: none; stroke-linecap: butt; stroke-dashoffset: 0; stroke-linejoin: miter; stroke-miterlimit: 4; fill: rgb(255,255,255); fill-rule: nonzero; opacity: 1;" vector-effect="non-scaling-stroke" cx="0" cy="0" r="5.4"/>
</g>
		<g transform="matrix(1 0 0 1 72.47 -178.57)">
<ellipse style="stroke: rgb(0,0,0); stroke-width: 6; stroke-dasharray: none; stroke-linecap: round; stroke-dashoffset: 0; stroke-linejoin: round; stroke-miterlimit: 10; fill: rgb(255,255,255); fill-rule: nonzero; opacity: 1;" vector-effect="non-scaling-stroke" cx="0" cy="0" rx="54.9" ry="53.1"/>
</g>
		<g transform="matrix(1 0 0 1 43.67 -175.87)">
<circle style="stroke: none; stroke-width: 1; stroke-dasharray: none; stroke-linecap: butt; stroke-dashoffset: 0; stroke-linejoin: miter; stroke-miterlimit: 4; fill: rgb(0,0,0); fill-rule: nonzero; opacity: 1;" vector-effect="non-scaling-stroke" cx="0" cy="0" r="18.9"/>
</g>
		<g transform="matrix(1 0 0 1 51.77 -171.37)">
<circle style="stroke: none; stroke-width: 1; stroke-dasharray: none; stroke-linecap: butt; stroke-dashoffset: 0; stroke-linejoin: miter; stroke-miterlimit: 4; fill: rgb(255,255,255); fill-rule: nonzero; opacity: 1;" vector-effect="non-scaling-stroke" cx="0" cy="0" r="5.4"/>
</g>
		<g transform="matrix(1 0 0 1 -4.94 -71.82)">
<path style="stroke: rgb(0,0,0); stroke-width: 6; stroke-dasharray: none; stroke-linecap: round; stroke-dashoffset: 0; stroke-linejoin: round; stroke-miterlimit: 10; fill: rgb(255,255,255); fill-rule: nonzero; opacity: 1;" vector-effect="non-scaling-stroke" transform=" translate(-274.67, -256.46)" d="M 285.228 234.764 C 274.444 234.952 272.827 239.763 263.543 241.42100000000002 C 263.21500000000003 247.14800000000002 262.798 254.98700000000002 262.38 264.317 C 261.48 284.41700000000003 286.98 279.91700000000003 286.98 267.91700000000003 C 286.98 258.788 286.98 242.20300000000003 286.98 234.78500000000003 C 286.42 234.764 285.843 234.753 285.228 234.764 z" stroke-linecap="round"/>
</g>
		<g transform="matrix(1 0 0 1 19.68 -71.81)">
<path style="stroke: rgb(0,0,0); stroke-width: 6; stroke-dasharray: none; stroke-linecap: round; stroke-dashoffset: 0; stroke-linejoin: round; stroke-miterlimit: 10; fill: rgb(255,255,255); fill-rule: nonzero; opacity: 1;" vector-effect="non-scaling-stroke" transform=" translate(-299.29, -256.47)" d="M 286.98 267.916 C 286.98 279.916 312.48 284.416 311.58000000000004 264.316 C 311.15100000000007 254.73399999999998 310.723 246.72599999999997 310.391 240.96299999999997 C 298.702 240.42999999999998 297.276 235.14999999999998 286.98 234.78399999999996 C 286.98 242.201 286.98 258.786 286.98 267.916 z" stroke-linecap="round"/>
</g>
		<g transform="matrix(1 0 0 1 5.49 -104.17)">
<path style="stroke: rgb(0,0,0); stroke-width: 6; stroke-dasharray: none; stroke-linecap: round; stroke-dashoffset: 0; stroke-linejoin: round; stroke-miterlimit: 10; fill: rgb(172,150,123); fill-rule: nonzero; opacity: 1;" vector-effect="non-scaling-stroke" transform=" translate(-285.1, -224.11)" d="M 324.934 214.718 C 320.58000000000004 210.033 315.413 207.48 308.509 206.24699999999999 C 304.845 211.613 295.718 215.416 285.03000000000003 215.416 C 274.752 215.416 265.918 211.898 261.99600000000004 206.856 C 254.60500000000005 208.273 249.24300000000005 211.041 244.84600000000003 216.11599999999999 C 236.21900000000002 226.075 240.40900000000002 241.00699999999998 252.00200000000004 241.81099999999998 C 256.95900000000006 242.15499999999997 260.62600000000003 241.94199999999998 263.54300000000006 241.42 C 272.82700000000006 239.762 274.4440000000001 234.951 285.22800000000007 234.76299999999998 C 285.8430000000001 234.753 286.4200000000001 234.76299999999998 286.9800000000001 234.783 C 297.2750000000001 235.149 298.7010000000001 240.42899999999997 310.3910000000001 240.962 C 312.7030000000001 241.06699999999998 315.4150000000001 240.988 318.68000000000006 240.646 C 330.238 239.438 333.904 224.37 324.934 214.718 z" stroke-linecap="round"/>
</g>
		<g transform="matrix(1 0 0 1 5.42 -127.27)">
<path style="stroke: none; stroke-width: 1; stroke-dasharray: none; stroke-linecap: butt; stroke-dashoffset: 0; stroke-linejoin: miter; stroke-miterlimit: 4; fill: rgb(0,0,0); fill-rule: nonzero; opacity: 1;" vector-effect="non-scaling-stroke" transform=" translate(-285.03, -201.02)" d="M 285.03 215.416 C 295.71799999999996 215.416 304.844 211.613 308.50899999999996 206.24699999999999 C 309.616 204.62499999999997 310.23099999999994 202.862 310.23099999999994 201.016 C 310.23099999999994 193.063 298.94999999999993 186.61599999999999 285.03099999999995 186.61599999999999 C 271.114 186.61599999999999 259.83099999999996 193.063 259.83099999999996 201.016 C 259.83099999999996 203.096 260.609 205.07 261.99699999999996 206.856 C 265.918 211.897 274.752 215.416 285.03 215.416 z" stroke-linecap="round"/>
</g>
		<g transform="matrix(1 0 0 1 260.51 -29.45)">
<path style="stroke: rgb(0,0,0); stroke-width: 4; stroke-dasharray: none; stroke-linecap: round; stroke-dashoffset: 0; stroke-linejoin: round; stroke-miterlimit: 10; fill: none; fill-rule: nonzero; opacity: 1;" vector-effect="non-scaling-stroke" transform=" translate(-540.12, -298.84)" d="M 534.104 301.255 C 537.366 300.018 543.8910000000001 297.317 546.1410000000001 296.418" stroke-linecap="round"/>
</g>
		<g transform="matrix(1 0 0 1 265.49 -29.64)">
<path style="stroke: rgb(0,0,0); stroke-width: 4; stroke-dasharray: none; stroke-linecap: round; stroke-dashoffset: 0; stroke-linejoin: round; stroke-miterlimit: 10; fill: none; fill-rule: nonzero; opacity: 1;" vector-effect="non-scaling-stroke" transform=" translate(-545.1, -298.64)" d="M 532.979 293.718 C 538.743 291.355 554.633 283.803 557.053 293.156 C 559.004 300.693 543.953 305.083 536.354 308.681" stroke-linecap="round"/>
</g>
		<g transform="matrix(1 0 0 1 -200.8 -66.44)">
<path style="stroke: rgb(0,0,0); stroke-width: 6; stroke-dasharray: none; stroke-linecap: round; stroke-dashoffset: 0; stroke-linejoin: round; stroke-miterlimit: 10; fill: rgb(154,93,40); fill-rule: nonzero; opacity: 1;" vector-effect="non-scaling-stroke" transform=" translate(-78.81, -261.84)" d="M 127.301 200.344 C 117.613 200.47299999999998 110.812 198.328 106.095 195.047 C 101.989 206.937 101.02 213.648 101.88 223.968 C 102.817 235.20999999999998 108.47999999999999 250.81699999999998 107.28 267.618 C 106.764 274.843 101.473 289.668 96.277 298.668 C 91.08 307.668 93.33 311.718 80.73 312.618 C 68.13000000000001 313.518 57.330000000000005 311.718 47.43000000000001 315.768 C 37.53000000000001 319.8179999999999 28.080000000000005 316.21799999999996 26.730000000000008 313.068 C 25.380000000000006 309.918 24.727000000000007 302.763 23.130000000000006 295.068 C 22.028000000000006 289.756 19.437000000000005 284.07399999999996 15.030000000000006 282.018 C 12.683000000000007 280.92299999999994 12.675000000000006 288.02799999999996 10.530000000000006 289.66799999999995 C 7.980000000000007 291.61799999999994 1.0370000000000061 290.5679999999999 3.5330000000000066 297.3179999999999 C 6.029000000000007 304.0679999999999 16.829000000000008 322.9679999999999 28.979000000000006 327.0179999999999 C 41.129000000000005 331.0679999999999 43.82900000000001 326.5679999999999 54.629000000000005 323.86799999999994 C 65.429 321.16799999999995 84.822 327.46799999999996 96.27600000000001 320.2679999999999 C 107.72900000000001 313.0679999999999 114.929 319.8179999999999 125.72900000000001 310.8179999999999 C 136.52900000000002 301.8179999999999 144.061 295.7709999999999 149.70100000000002 284.6069999999999 C 153.93800000000002 276.2209999999999 142.16600000000003 260.89199999999994 154.62000000000003 232.85399999999993 C 142.457 224.926 132.646 213.1 127.301 200.344 z" stroke-linecap="round"/>
</g>
		<g transform="matrix(1 0 0 1 202.66 -66.7)">
<path style="stroke: rgb(0,0,0); stroke-width: 6; stroke-dasharray: none; stroke-linecap: round; stroke-dashoffset: 0; stroke-linejoin: round; stroke-miterlimit: 10; fill: rgb(154,93,40); fill-rule: nonzero; opacity: 1;" vector-effect="non-scaling-stroke" transform=" translate(-482.27, -261.58)" d="M 531.479 294.618 C 531.479 294.618 520.6080000000001 303.8 516.479 310.218 C 512.2660000000001 316.76800000000003 505.97900000000004 328.218 496.379 321.918 C 485.035 314.474 491.52700000000004 315.707 472.97900000000004 305.718 C 453.47900000000004 295.218 462.78000000000003 286.218 465.47900000000004 280.81800000000004 C 468.17800000000005 275.41800000000006 475.67800000000005 261.66600000000005 475.684 245.41900000000004 C 475.69 225.76700000000005 472.391 225.44600000000003 470.278 222.31800000000004 C 468.15500000000003 219.17400000000004 465.68600000000004 220.46200000000005 466.97900000000004 208.81800000000004 C 468.321 196.73000000000005 468.254 185.57300000000004 468.20000000000005 182.36400000000003 C 463.47100000000006 189.90300000000002 454.02200000000005 192.96300000000002 439.59100000000007 194.39900000000003 C 437.0730000000001 201.61600000000004 433.62200000000007 207.74700000000004 429.61600000000004 212.92500000000004 C 427.90500000000003 223.32200000000003 428.809 239.00200000000004 435.47900000000004 250.21700000000004 C 441.35 260.086 435.35600000000005 276.80000000000007 433.97900000000004 282.617 C 431.20900000000006 294.31 426.17800000000005 303.017 439.872 311.41700000000003 C 454.593 320.44800000000004 470.579 328.817 477.78000000000003 333.01700000000005 C 484.97900000000004 337.21700000000004 499.38000000000005 336.91700000000003 504.47900000000004 340.21700000000004 C 508.31500000000005 342.69900000000007 517.678 336.91700000000003 519.479 330.31700000000006 C 520.686 325.89000000000004 523.678 315.31700000000006 535.678 309.6170000000001 C 533.88 302.718 531.479 294.618 531.479 294.618 z" stroke-linecap="round"/>
</g>
		<g transform="matrix(1 0 0 1 3.98 -236.97)">
<path style="stroke: rgb(0,0,0); stroke-width: 6; stroke-dasharray: none; stroke-linecap: round; stroke-dashoffset: 0; stroke-linejoin: round; stroke-miterlimit: 10; fill: rgb(154,93,40); fill-rule: nonzero; opacity: 1;" vector-effect="non-scaling-stroke" transform=" translate(-283.59, -91.31)" d="M 159.479 104.718 C 191.429 85.368 250.829 80.873 276.92900000000003 80.868 C 361.53000000000003 80.85199999999999 390.80500000000006 88.494 411.836 104.508 C 433.742 121.189 444.766 150.00799999999998 443.90200000000004 171.086 C 447.99600000000004 170.661 451.59700000000004 170.09900000000002 454.90200000000004 169.281 C 454.701 137.979 437.79300000000006 109.12200000000001 414.177 95.49300000000001 C 424.103 92.94900000000001 432.423 90.90700000000001 443.956 90.203 C 442.622 85.949 441.778 81.767 438.927 75.917 C 435.12 68.104 422.279 61.967 414.177 56.117000000000004 C 406.077 50.267 393.478 33.167 381.779 27.767000000000003 C 370.078 22.367000000000004 343.978 13.817000000000004 329.943 7.967000000000002 C 315.90999999999997 2.1170000000000027 285.928 3.4670000000000023 274.666 3.017000000000002 C 263.403 2.567000000000002 239.128 10.667000000000002 225.178 13.817000000000004 C 211.228 16.967000000000002 199.528 25.967000000000006 193.678 28.217000000000006 C 187.828 30.467000000000006 179.728 40.81700000000001 175.678 47.117000000000004 C 171.628 53.417 160.378 54.767 154.078 61.517 C 147.77800000000002 68.267 142.828 70.06700000000001 136.528 74.56700000000001 C 130.22799999999998 79.06700000000001 127.52799999999999 86.26700000000001 123.928 97.72900000000001 C 132.358 98.83700000000002 139.939 100.08300000000001 148.297 102.91700000000002 C 124.109 120.17200000000001 112.381 143.834 112.286 177.668 C 115.884 178.803 119.433 179.57500000000002 122.78 179.62800000000001 C 120.719 137.599 142.932 114.74 159.479 104.718 z" stroke-linecap="round"/>
</g>
		<g transform="matrix(1 0 0 1 -167.83 -142.45)">
<path style="stroke: rgb(0,0,0); stroke-width: 6; stroke-dasharray: none; stroke-linecap: round; stroke-dashoffset: 0; stroke-linejoin: round; stroke-miterlimit: 10; fill: rgb(154,93,40); fill-rule: nonzero; opacity: 1;" vector-effect="non-scaling-stroke" transform=" translate(-111.78, -185.83)" d="M 123.03 183.468 C 122.923 182.17 122.844 180.892 122.782 179.629 C 119.435 179.576 115.886 178.804 112.288 177.66899999999998 C 106.966 175.98999999999998 101.535 173.50799999999998 96.47999999999999 171.31799999999998 C 95.651 178.00199999999998 96.93099999999998 188.67299999999997 106.09499999999998 195.04699999999997 C 110.81199999999998 198.32799999999997 117.61399999999999 200.47299999999996 127.30099999999999 200.34399999999997 C 124.982 194.812 123.493 189.107 123.03 183.468 z" stroke-linecap="round"/>
</g>
		<g transform="matrix(1 0 0 1 176.07 -150.53)">
<path style="stroke: rgb(0,0,0); stroke-width: 6; stroke-dasharray: none; stroke-linecap: round; stroke-dashoffset: 0; stroke-linejoin: round; stroke-miterlimit: 10; fill: rgb(154,93,40); fill-rule: nonzero; opacity: 1;" vector-effect="non-scaling-stroke" transform=" translate(-455.69, -177.75)" d="M 471.485 161.096 C 466.2 165.316 461.075 167.75300000000001 454.903 169.281 C 451.598 170.09900000000002 447.997 170.66 443.903 171.086 C 443.89300000000003 171.31300000000002 443.891 171.544 443.88 171.769 C 443.423 180.284 441.896 187.794 439.591 194.4 C 454.023 192.963 463.472 189.90300000000002 468.2 182.365 C 471.282 177.447 472.362 170.628 471.485 161.096 z" stroke-linecap="round"/>
</g>
		<g transform="matrix(1 0 0 1 -4.71 -286.35)">
<path style="stroke: rgb(0,0,0); stroke-width: 6; stroke-dasharray: none; stroke-linecap: round; stroke-dashoffset: 0; stroke-linejoin: round; stroke-miterlimit: 10; fill: none; fill-rule: nonzero; opacity: 1;" vector-effect="non-scaling-stroke" transform=" translate(-274.9, -41.93)" d="M 272.879 3 C 274.22900000000004 13.818 276.47900000000004 28.218 276.47900000000004 38.118 C 276.47900000000004 48.018 275.57900000000006 68.268 276.92900000000003 80.868" stroke-linecap="round"/>
</g>
		<g transform="matrix(1 0 0 1 -123.6 -244.39)">
<path style="stroke: rgb(0,0,0); stroke-width: 6; stroke-dasharray: none; stroke-linecap: round; stroke-dashoffset: 0; stroke-linejoin: round; stroke-miterlimit: 10; fill: none; fill-rule: nonzero; opacity: 1;" vector-effect="non-scaling-stroke" transform=" translate(-156.01, -83.89)" d="M 152.619 63.019 C 152.73 70.31 155.811 95.97200000000001 159.411 104.75999999999999" stroke-linecap="round"/>
</g>
		<g transform="matrix(1 0 0 1 126.58 -252.19)">
<path style="stroke: rgb(0,0,0); stroke-width: 6; stroke-dasharray: none; stroke-linecap: round; stroke-dashoffset: 0; stroke-linejoin: round; stroke-miterlimit: 10; fill: none; fill-rule: nonzero; opacity: 1;" vector-effect="non-scaling-stroke" transform=" translate(-406.19, -76.1)" d="M 414.179 56.118 C 411.03099999999995 62.418 404.099 81.012 398.20599999999996 96.07300000000001" stroke-linecap="round"/>
</g>
		<g transform="matrix(1 0 0 1 80.39 -174.89)">
<path style="stroke: none; stroke-width: 1; stroke-dasharray: none; stroke-linecap: butt; stroke-dashoffset: 0; stroke-linejoin: miter; stroke-miterlimit: 4; fill: none; fill-rule: nonzero; opacity: 1;" vector-effect="non-scaling-stroke" transform=" translate(-360.01, -153.4)" d="M 387.741 104.904 C 351.255 86.127 311.99699999999996 98.151 299.671 128.547 C 292.905 145.226 295.76099999999997 162.623 304.538 177.24 C 310.993 187.99 320.647 197.241 332.065 203.582 C 349.985 213.535 397.354 217.768 416.887 186.147 C 419.336 182.182 421.178 177.789 422.39300000000003 173.144 C 428.409 150.17 418.774 120.875 387.741 104.904 z" stroke-linecap="round"/>
</g>
		<g transform="matrix(1 0 0 1 -73.5 -169.49)">
<path style="stroke: none; stroke-width: 1; stroke-dasharray: none; stroke-linecap: butt; stroke-dashoffset: 0; stroke-linejoin: miter; stroke-miterlimit: 4; fill: none; fill-rule: nonzero; opacity: 1;" vector-effect="non-scaling-stroke" transform=" translate(-206.11, -158.8)" d="M 178.381 110.304 C 145.403 127.275 136.585 159.29500000000002 145.039 182.78300000000002 C 146.149 185.86700000000002 147.54399999999998 188.811 149.23399999999998 191.54700000000003 C 168.76799999999997 223.16800000000003 216.137 218.93500000000003 234.05699999999996 208.98200000000003 C 246.86299999999997 201.87000000000003 257.45699999999994 191.10200000000003 263.79799999999994 178.65600000000003 C 270.79699999999997 164.91800000000003 272.61099999999993 149.13400000000004 266.45199999999994 133.94700000000003 C 254.125 103.55 214.867 91.527 178.381 110.304 z" stroke-linecap="round"/>
</g>
		<g transform="matrix(1 0 0 1 3.69 -166.41)">
<path style="stroke: rgb(0,0,0); stroke-width: 6; stroke-dasharray: none; stroke-linecap: round; stroke-dashoffset: 0; stroke-linejoin: round; stroke-miterlimit: 10; fill: rgb(154,93,40); fill-rule: nonzero; opacity: 1;" vector-effect="non-scaling-stroke" transform=" translate(-283.3, -161.87)" d="M 411.837 104.508 C 390.806 88.494 361.53 80.852 276.92999999999995 80.868 C 250.82999999999996 80.87299999999999 191.42999999999995 85.368 159.47999999999996 104.71799999999999 C 142.93299999999996 114.73899999999999 120.71899999999997 137.599 122.78199999999995 179.629 C 122.84399999999995 180.893 122.92299999999996 182.17 123.02999999999996 183.468 C 123.49299999999995 189.107 124.98299999999996 194.81099999999998 127.30099999999996 200.343 C 132.64599999999996 213.099 142.45699999999997 224.926 154.62099999999995 232.85199999999998 C 164.13699999999994 239.05299999999997 175.09299999999996 242.86699999999996 186.47899999999996 242.86699999999996 C 239.88899999999995 242.86699999999996 234.51299999999995 214.52999999999997 260.477 204.24399999999997 C 260.05899999999997 203.20599999999996 259.83 202.12599999999998 259.83 201.01499999999996 C 259.83 193.06199999999995 271.11199999999997 186.61499999999995 285.03 186.61499999999995 C 298.94899999999996 186.61499999999995 310.22999999999996 193.06199999999995 310.22999999999996 201.01499999999996 C 310.22999999999996 201.94699999999995 310.073 202.85699999999997 309.775 203.73899999999995 C 338.416 212.67999999999995 323.73499999999996 237.46799999999996 383.12899999999996 237.46799999999996 C 394.72499999999997 237.46799999999996 415.58399999999995 231.06599999999997 429.61499999999995 212.92499999999995 C 433.621 207.74699999999996 437.07199999999995 201.61599999999996 439.59 194.39899999999994 C 441.895 187.79299999999995 443.42199999999997 180.28299999999996 443.87899999999996 171.76799999999994 C 443.89099999999996 171.54299999999995 443.893 171.31199999999995 443.902 171.08499999999995 C 444.767 150.007 433.743 121.189 411.837 104.508 z M 263.798 178.656 C 257.457 191.102 246.863 201.869 234.05700000000002 208.982 C 216.137 218.935 168.76800000000003 223.168 149.23400000000004 191.547 C 147.54400000000004 188.811 146.14900000000003 185.868 145.03900000000004 182.783 C 136.58500000000004 159.295 145.40300000000005 127.27499999999998 178.38100000000003 110.30399999999999 C 214.86700000000002 91.52699999999999 254.12400000000002 103.54999999999998 266.452 133.947 C 272.611 149.134 270.797 164.918 263.798 178.656 z M 422.394 173.144 C 421.17900000000003 177.79 419.337 182.18200000000002 416.88800000000003 186.147 C 397.355 217.768 349.98600000000005 213.535 332.06600000000003 203.582 C 320.648 197.24099999999999 310.994 187.99099999999999 304.53900000000004 177.24 C 295.76200000000006 162.622 292.90600000000006 145.226 299.672 128.54700000000003 C 311.99800000000005 98.15100000000002 351.25600000000003 86.12700000000002 387.742 104.90400000000002 C 418.774 120.875 428.409 150.17 422.394 173.144 z" stroke-linecap="round"/>
</g>
</g>
</g>
</svg>