<svg id="Layer_1" data-name="Layer 1" xmlns="http://www.w3.org/2000/svg" viewBox="0 0 81 81"><defs><style>.cls-1{fill:#4285f4;}.cls-2{fill:#669df6;}.cls-3{fill:#fff;}.cls-4{fill:#d0b698;}.cls-5{fill:#ac967b;}.cls-6{fill:#9a5d28;}.cls-7{fill:none;}</style></defs><g id="A"><path class="cls-1" d="M40.5,32.5h40v16h-40Zm0,32h40v16h-40Z"/><path class="cls-2" d="M24.5,64.5h16v16h-16Zm-24-48h24V.5H.5Zm0,32h40v-16H.5Z"/><path class="cls-3" d="M40.36,40A10.57,10.57,0,0,0,37,41c-.67.41-.58,1.62-.11,2.21a1.33,1.33,0,0,0,1.82.27,7.58,7.58,0,0,0,1.61-1.24c0-.47,0-.94.05-1.41C40.35,40.51,40.36,40.25,40.36,40Z"/><path class="cls-3" d="M75.57,40.55a10,10,0,0,0-3.11-.94c0,.63.06,1.31.12,2.09l0,.41a5.22,5.22,0,0,0,1.26.91,1.32,1.32,0,0,0,1.81-.26C76.16,42.16,76.24,41,75.57,40.55Z"/><path class="cls-3" d="M41.26,65.07c-.9,1.6,1.46,2.92,2.68,1.81A5.94,5.94,0,0,1,47.45,65a13.85,13.85,0,0,1-3.46-2A5.16,5.16,0,0,0,41.26,65.07Z"/><path class="cls-3" d="M68.61,66.44c1,1.31,3.53.12,2.79-1.57a5.2,5.2,0,0,0-2.53-2.58,12.64,12.64,0,0,1-2.69,1.91A6.42,6.42,0,0,1,68.61,66.44Z"/><path class="cls-4" d="M40,20.15A1.16,1.16,0,0,1,41.13,19a1.14,1.14,0,0,1,.91.46,9.2,9.2,0,0,1,1.83-2.17,3.1,3.1,0,0,0-1.8-.7c-2.84-.38-4.29,1-4.62,2.9a3.64,3.64,0,0,0,2.84,4.28,17.16,17.16,0,0,1,.81-2.45A1.17,1.17,0,0,1,40,20.15Z"/><path class="cls-4" d="M74.13,18.74c-.33-1.88-1.79-3.29-4.63-2.9a2.86,2.86,0,0,0-1.9.81,13.21,13.21,0,0,1,1.76,1.88l.08.11a1.14,1.14,0,0,1,.93-.47,1.16,1.16,0,0,1,.23,2.29,13.46,13.46,0,0,1,1,2.48A3.64,3.64,0,0,0,74.13,18.74Z"/><path class="cls-4" d="M69.44,18.64l-.08-.11a13.21,13.21,0,0,0-1.76-1.88c-2.73-2.35-6.29-3.18-11.43-3-4.46.13-9.2.91-12.3,3.66A9.2,9.2,0,0,0,42,19.45l-.19.33a15.54,15.54,0,0,0-.75,1.53,17.16,17.16,0,0,0-.81,2.45,24.39,24.39,0,0,0-.69,6.07c0,4.13.81,6.18.76,10.15,0,.27,0,.53,0,.81,0,.47,0,.94-.05,1.41-.15,4.87-.09,9.7-.13,13A9.59,9.59,0,0,0,44,62.94a13.85,13.85,0,0,0,3.46,2,21.56,21.56,0,0,0,8.23,1.48,21.84,21.84,0,0,0,10.5-2.23,12.64,12.64,0,0,0,2.69-1.91,11.23,11.23,0,0,0,3.29-5.67c1.06-4.44.92-7.7.45-14.51l0-.41c-.06-.77-.1-1.46-.12-2.09-.16-3.42,0-5,0-8.87A30.63,30.63,0,0,0,71.56,23a12.64,12.64,0,0,0-1-2.49A12.44,12.44,0,0,0,69.44,18.64Z"/><ellipse class="cls-3" cx="49.41" cy="21.72" rx="5.03" ry="4.86"/><circle class="cls-3" cx="47.52" cy="22.38" r="0.49"/><ellipse class="cls-3" cx="62.02" cy="21.14" rx="5.03" ry="4.86"/><circle class="cls-3" cx="60.13" cy="21.8" r="0.49"/><path class="cls-3" d="M55.9,28.93c-1,0-1.13.46-2,.61,0,.53-.06,1.24-.1,2.1a1.14,1.14,0,0,0,2.25.33v-3Z"/><path class="cls-3" d="M56.06,32a1.14,1.14,0,0,0,2.25-.33c0-.88-.07-1.61-.1-2.14-1.07-.05-1.21-.53-2.15-.57Z"/><path class="cls-5" d="M59.54,27.1A2.51,2.51,0,0,0,58,26.32a2.65,2.65,0,0,1-2.15.84,2.75,2.75,0,0,1-2.11-.78,2.6,2.6,0,0,0-1.57.84,1.37,1.37,0,0,0,.66,2.36,4.16,4.16,0,0,0,1,0c.86-.15,1-.59,2-.61h.16c.94,0,1.08.52,2.15.57a5.26,5.26,0,0,0,.76,0A1.36,1.36,0,0,0,59.54,27.1Z"/><path class="cls-6" d="M41.44,25.78a3.28,3.28,0,0,1-1.95-.49,5.69,5.69,0,0,0-.38,2.65,21.47,21.47,0,0,1,.49,4,8.76,8.76,0,0,1-1,2.85c-.47.82-.27,1.19-1.42,1.27a10.41,10.41,0,0,0-3.05.29,1.66,1.66,0,0,1-1.9-.25c-.12-.28-.18-.94-.33-1.64a1.65,1.65,0,0,0-.74-1.2c-.21-.1-.21.55-.41.7s-.87.08-.64.7,1.22,2.35,2.33,2.72,1.36,0,2.35-.29,2.76.33,3.81-.33,1.71,0,2.7-.86a7.52,7.52,0,0,0,2.2-2.4c.39-.77-.69-2.18.45-4.74A6.67,6.67,0,0,1,41.44,25.78Z"/><path class="cls-6" d="M78.46,34.41a9.53,9.53,0,0,0-1.38,1.43c-.38.6-1,1.65-1.84,1.07a12.23,12.23,0,0,0-2.14-1.48c-1.79-1-.94-1.79-.69-2.28a7.13,7.13,0,0,0,.94-3.24c0-1.8-.31-1.83-.5-2.12s-.42-.17-.3-1.24a19.63,19.63,0,0,0,.11-2.42c-.43.69-1.3,1-2.62,1.1a6,6,0,0,1-.91,1.7,5.46,5.46,0,0,0,.53,3.42c.54.9,0,2.43-.13,3-.26,1.08-.72,1.87.54,2.64s2.81,1.6,3.47,2,2,.36,2.44.66,1.21-.3,1.38-.91a2.74,2.74,0,0,1,1.48-1.89C78.68,35.16,78.46,34.41,78.46,34.41Z"/><path class="cls-6" d="M44.38,17c2.93-1.77,8.37-2.18,10.76-2.18,7.75,0,10.43.69,12.36,2.16a7.86,7.86,0,0,1,2.94,6.1,6.7,6.7,0,0,0,1-.17,8,8,0,0,0-3.73-6.76,13.26,13.26,0,0,1,2.73-.48A7.73,7.73,0,0,0,70,14.38c-.35-.71-1.53-1.28-2.27-1.81s-1.89-2.1-3-2.6S61.28,8.69,60,8.16s-4-.41-5.07-.46a26.62,26.62,0,0,0-4.53,1A14.13,14.13,0,0,0,47.52,10a5.19,5.19,0,0,0-1.65,1.73c-.37.58-1.4.7-2,1.32a8,8,0,0,1-1.61,1.2,3.73,3.73,0,0,0-1.15,2.12,11.82,11.82,0,0,1,2.23.47,7.77,7.77,0,0,0-3.3,6.85,3.06,3.06,0,0,0,1,.18A7.23,7.23,0,0,1,44.38,17Z"/><path class="cls-6" d="M41,24.23c0-.12,0-.23,0-.35a3.06,3.06,0,0,1-1-.18,15.11,15.11,0,0,1-1.45-.58,2.28,2.28,0,0,0,.88,2.17,3.28,3.28,0,0,0,1.95.49A5.14,5.14,0,0,1,41,24.23Z"/><path class="cls-6" d="M73,22.18a3.68,3.68,0,0,1-1.52.75,6.7,6.7,0,0,1-1,.17v.06A7.4,7.4,0,0,1,70,25.23c1.32-.13,2.19-.41,2.62-1.1A3.1,3.1,0,0,0,73,22.18Z"/><path class="cls-7" d="M65.29,17c-3.34-1.72-6.94-.62-8.07,2.16a5,5,0,0,0,.45,4.46,6.89,6.89,0,0,0,2.52,2.42c1.64.91,6,1.29,7.77-1.6a4.86,4.86,0,0,0,.51-1.19A5.52,5.52,0,0,0,65.29,17Z"/><path class="cls-7" d="M46.11,17.53a5.47,5.47,0,0,0-3,6.64,4.52,4.52,0,0,0,.38.8c1.79,2.9,6.13,2.51,7.77,1.6a6.7,6.7,0,0,0,2.73-2.78,4.83,4.83,0,0,0,.24-4.09C53.05,16.91,49.46,15.81,46.11,17.53Z"/><path class="cls-6" d="M67.5,17c-1.93-1.47-4.61-2.17-12.36-2.16-2.39,0-7.83.41-10.76,2.18A7.23,7.23,0,0,0,41,23.88c0,.12,0,.23,0,.35a5.14,5.14,0,0,0,.4,1.55,6.67,6.67,0,0,0,2.5,3,5.41,5.41,0,0,0,2.92.91c4.89,0,4.4-2.59,6.77-3.53a1.07,1.07,0,0,1-.06-.3c0-.73,1-1.32,2.31-1.32s2.31.59,2.31,1.32a.69.69,0,0,1,0,.25c2.62.82,1.28,3.09,6.72,3.09a5.82,5.82,0,0,0,4.26-2.25,6,6,0,0,0,.91-1.7,7.4,7.4,0,0,0,.39-2.07.13.13,0,0,1,0-.06A7.86,7.86,0,0,0,67.5,17ZM53.94,23.79a6.7,6.7,0,0,1-2.73,2.78c-1.64.91-6,1.3-7.77-1.6a4.52,4.52,0,0,1-.38-.8,5.47,5.47,0,0,1,3-6.64c3.35-1.72,6.94-.62,8.07,2.17A4.83,4.83,0,0,1,53.94,23.79Zm14.53-.5A4.5,4.5,0,0,1,68,24.48c-1.79,2.89-6.13,2.51-7.77,1.6a6.89,6.89,0,0,1-2.52-2.42,5,5,0,0,1-.45-4.46C58.35,16.42,62,15.32,65.29,17A5.52,5.52,0,0,1,68.47,23.29Z"/><circle cx="46.77" cy="21.97" r="1.73"/><circle cx="59.39" cy="21.39" r="1.73"/><path d="M81,34.23a.69.69,0,0,0-.37-.46c-.49-.24-1.26,0-2,.34l-.12,0h0a.27.27,0,0,0-.26.05,10,10,0,0,0-1.43,1.49l-.08.13c-.24.38-.57.9-.93,1a.58.58,0,0,1-.45-.12,3.88,3.88,0,0,1-.67-.52,6,6,0,0,0-1.49-1,3.89,3.89,0,0,1-.56-.36v-.15c0-.46,0-1,0-1.48l0,0a7.29,7.29,0,0,0,.91-3.26c0-1.51-.2-1.87-.46-2.18l-.08-.09a.83.83,0,0,0-.17-.19c-.09-.1-.17-.17-.09-.86a21.25,21.25,0,0,0,.12-2.39,3.27,3.27,0,0,0,.31-1.9,3.93,3.93,0,0,0,1.15-3.61,3.67,3.67,0,0,0-3.73-3.18.84.84,0,0,0,0-.17,5.57,5.57,0,0,0-.39-1.08,4.47,4.47,0,0,0-1.7-1.48l-.66-.43a8.57,8.57,0,0,1-1-.92,8.25,8.25,0,0,0-2-1.71c-.6-.28-1.62-.65-2.6-1-.78-.29-1.59-.58-2.16-.82a14.06,14.06,0,0,0-4.33-.46h-1a16.91,16.91,0,0,0-3.06.65l-1.33.35a8.43,8.43,0,0,0-2.29,1,6.21,6.21,0,0,1-.63.34,5.29,5.29,0,0,0-1.78,1.83,2.07,2.07,0,0,1-.85.57,3.49,3.49,0,0,0-1.1.72,5,5,0,0,1-1,.81l-.53.34a4,4,0,0,0-1.24,2.22,3.68,3.68,0,0,0-3.71,3.19,4,4,0,0,0,1.18,3.62,0,0,0,0,0,0,0,2.6,2.6,0,0,0,.83,2.3A5.77,5.77,0,0,0,38.83,28,11.64,11.64,0,0,0,39,29.22a9.69,9.69,0,0,1,.29,2.7,8.84,8.84,0,0,1-1,2.73,4.15,4.15,0,0,0-.28.56c-.18.42-.23.53-.93.58l-1,0a5.27,5.27,0,0,0-2.1.28,1.54,1.54,0,0,1-1.54-.1,4.39,4.39,0,0,1-.18-.81c0-.24-.08-.51-.14-.79A2,2,0,0,0,31.27,33,.34.34,0,0,0,31,33c-.18.08-.24.29-.3.49a1.72,1.72,0,0,1-.09.25l-.18.06a.78.78,0,0,0-.55.36.67.67,0,0,0,0,.59c.23.62,1.25,2.47,2.5,2.88a2.64,2.64,0,0,0,.87.16,2.5,2.5,0,0,0,1-.22c.2-.07.41-.15.68-.22a5,5,0,0,1,1.36,0A4.4,4.4,0,0,0,38.74,37a2.19,2.19,0,0,1,1.16-.33h0a26.1,26.1,0,0,1,.16,3.08,10.07,10.07,0,0,0-3.26,1,1.3,1.3,0,0,0-.59.93A2.28,2.28,0,0,0,36.42,43h0a1.93,1.93,0,0,0,.23.37,1.44,1.44,0,0,0,1.16.6,2.36,2.36,0,0,0,1-.25A5.94,5.94,0,0,0,40,42.83c-.08,3.08-.09,6.08-.1,8.74,0,1.32,0,2.57,0,3.64a9.88,9.88,0,0,0,3.59,7.66A5,5,0,0,0,41,64.93a1.61,1.61,0,0,0,.44,2.15,2.26,2.26,0,0,0,1.39.49,1.84,1.84,0,0,0,1.28-.49l.11-.1a5.53,5.53,0,0,1,3.18-1.75,21.8,21.8,0,0,0,8.26,1.48,22.41,22.41,0,0,0,10.5-2.2,5.94,5.94,0,0,1,2.12,2l.1.12a1.69,1.69,0,0,0,1.38.66,2.22,2.22,0,0,0,1.11-.3,1.69,1.69,0,0,0,.76-2.21,5.47,5.47,0,0,0-2.32-2.54,11.51,11.51,0,0,0,3.1-5.54c1-4.41.92-7.73.5-13.94a4.25,4.25,0,0,0,.82.53,2.41,2.41,0,0,0,1,.26,1.44,1.44,0,0,0,1.16-.6,1.54,1.54,0,0,0,.23-.37h0a2.28,2.28,0,0,0,.18-1.31,1.28,1.28,0,0,0-.59-.93,9.31,9.31,0,0,0-3-.94c0-.59,0-1.12,0-1.62l.73.41a4.23,4.23,0,0,0,1.46.4,3.51,3.51,0,0,1,1,.25.63.63,0,0,0,.36.1,1.18,1.18,0,0,0,.39-.08,1.77,1.77,0,0,0,1-1.08A2.44,2.44,0,0,1,79,36a.31.31,0,0,0,.16-.23l.29-.13C80.19,35.36,81.16,35,81,34.23Zm-11.08-4A5.16,5.16,0,0,1,69.39,27l.07-.09a.43.43,0,0,0,0-.07.91.91,0,0,0,.11-.16l0,0,.12-.21,0,0,.09-.16,0-.08s0-.09.07-.14L70,26l.06-.13,0-.09.06-.14,0-.09,0,0a6,6,0,0,0,1.51-.33,39.74,39.74,0,0,1,.39,5.58c0,.87,0,1.64,0,2.33l-.08.15a1.53,1.53,0,0,0-.3,1.23,1.34,1.34,0,0,0,.36.61c0,.59,0,1.16,0,1.76-.6-.33-1.26-.71-1.9-1.1-.9-.55-.76-1.06-.53-1.89,0-.15.08-.3.11-.45a2.56,2.56,0,0,0,.07-.27A4,4,0,0,0,69.9,30.21Zm-12-.46c0,.61.06,1.25.09,1.9a.92.92,0,0,1-.35.86,1,1,0,0,1-1,0,.63.63,0,0,1-.36-.52V29.24l.09,0h0l.06,0h0l.07,0h0l.08,0h0l0,0h0l0,0,0,0h0l.05,0,0,0,.09,0,0,0,.09,0h0l.09,0h0l.1,0h0l.12,0h0l.12,0h0l.14,0Zm-3.87,1.9c0-.65.06-1.28.1-1.88l0,0h0l.09,0h0l.11,0h0l.09,0h0l.08,0h0l.08,0h0l.08,0,.19-.1h0l.09,0h0l.1,0h0l.1,0h0l.24,0h.16V32h0a.64.64,0,0,1-.37.52,1,1,0,0,1-1,0A.92.92,0,0,1,54.08,31.65Zm4.14-2.43a2.37,2.37,0,0,1-1-.27,2.65,2.65,0,0,0-1.11-.29H55.9a2.49,2.49,0,0,0-1.28.34,2.62,2.62,0,0,1-.75.27,3.92,3.92,0,0,1-1,0,.84.84,0,0,1-.74-.54,1.34,1.34,0,0,1,.27-1.36,2.27,2.27,0,0,1,1.26-.72,3.15,3.15,0,0,0,2.21.75,3.07,3.07,0,0,0,2.26-.81,2.25,2.25,0,0,1,1.2.66,1.33,1.33,0,0,1,.31,1.35.84.84,0,0,1-.71.57A4.5,4.5,0,0,1,58.22,29.22Zm.24-3.31a.2.2,0,0,0,0-.07c0-.89-1.14-1.59-2.59-1.59s-2.58.7-2.58,1.59a.66.66,0,0,0,0,.14,5.16,5.16,0,0,0-1.72,1.44c-.85,1-1.73,2-4.73,2a5.08,5.08,0,0,1-2.77-.87,6.53,6.53,0,0,1-2.4-2.86,4.69,4.69,0,0,1-.37-1.46c0-.12,0-.23,0-.34a7.79,7.79,0,0,1,.63-3.66,2.69,2.69,0,0,1,.16-.29,3,3,0,0,1,.19-.33,7.75,7.75,0,0,1,.72-1c.1-.13.21-.26.32-.38l.06-.05a6.56,6.56,0,0,1,1.15-.9c2.79-1.69,8-2.14,10.61-2.14h0c6.09,0,9.84.34,12.16,2.11a6.92,6.92,0,0,1,.89.82,7.53,7.53,0,0,1,1.1,1.61,7.25,7.25,0,0,1,.84,3.27v.23a7.32,7.32,0,0,1-.38,2,5.74,5.74,0,0,1-.87,1.62,5.51,5.51,0,0,1-4,2.14c-3.28,0-4-.8-4.67-1.65A3.76,3.76,0,0,0,58.46,25.91ZM43.6,28.86a6.18,6.18,0,0,0-.37,3.56,1.77,1.77,0,0,1,0,.95,6.63,6.63,0,0,1-2,2.23l-.09.09a1.65,1.65,0,0,1-.71.36c0-.4-.09-.79-.14-1.18a35.17,35.17,0,0,1-.39-5,27,27,0,0,1,.26-3.94l.07,0,.06,0,.18,0h.08a.58.58,0,0,0,.19,0h.06L41,26h.22v0s0,.05,0,.08a.83.83,0,0,0,.07.13l0,.09.07.13a.56.56,0,0,0,0,.08.57.57,0,0,0,.08.13l0,.08.09.13,0,.08.1.14,0,.06.14.19h0l.15.19,0,.05.12.14.05.06.12.12.06.06.11.12.07.06.11.11.07.06.12.1.07.06.14.11.05,0,.17.12,0,0Zm-4.22-.94a4.82,4.82,0,0,1,.21-2c-.1.65-.16,1.33-.21,2Zm1.49-2.44-.19,0h0l-.21-.05h0l-.16,0c.07-.43.16-.85.26-1.25h.12l.13,0h0s0,.08,0,.12l0,.27v.07c0,.09,0,.18,0,.27v0a2.27,2.27,0,0,0,.06.25l0,.07a2.76,2.76,0,0,0,.08.27h-.16Zm-.25-1.92c0-.12.07-.24.1-.36l0-.05v.43h-.12Zm.1-2v0c-.05.12-.1.24-.14.37l0,.1a3,3,0,0,0-.11.32,6.36,6.36,0,0,1,.15-.89ZM71,22.74l-.09,0h-.23v-.2a.28.28,0,0,1,0-.09.34.34,0,0,0,0-.1v-.09a.31.31,0,0,1,0-.1s0-.06,0-.09a.31.31,0,0,0,0-.1s0-.07,0-.1,0-.06,0-.09a.43.43,0,0,0,0-.11s0-.06,0-.09a.43.43,0,0,1,0-.11.29.29,0,0,1,0-.09l0-.11s0-.06,0-.09l0-.11s0-.07,0-.1l0-.11,0-.09a.56.56,0,0,0,0-.12l0-.09a.76.76,0,0,0,0-.11l0-.09v0l.11.2h0a12.3,12.3,0,0,1,.8,2,.92.92,0,0,1,0,.16l-.11,0Zm1.33,2.78-.09-.61.11-.08C72.38,25,72.37,25.27,72.36,25.52Zm-.74-.9h0l-.15.06h0l-.11,0h-.06l-.11,0-.07,0-.11,0-.08,0-.11,0h-.08l-.13,0-.08,0h0v0a3,3,0,0,0,.08-.32V24.5l.06-.3s0-.07,0-.1,0-.21,0-.32v0l0-.36v0h0l.2,0h0l.18,0h0l.17,0h0c.12.43.22.88.31,1.37Zm-2.16-6.4,0-.07L69.32,18l-.09-.1a9.4,9.4,0,0,0-.66-.74h0c0-.06-.11-.11-.17-.17l0,0-.15-.15,0,0a6.69,6.69,0,0,1,1.35,1.36ZM63.55,15.1,62.88,15l-.33-.05-.38,0h0l-.78-.08-.24,0-.29,0L60,14.69l-.3,0-.74,0-.52,0h-3q0-.3,0-.63c.27,0,.54,0,.82,0s.77,0,1.15,0c3.71,0,6.42.59,8.58,1.89A11.67,11.67,0,0,0,63.55,15.1Zm-8.71-.54a31.81,31.81,0,0,0-7.92,1.1A22.65,22.65,0,0,1,54.81,14Q54.83,14.27,54.84,14.56Zm-11.4,2.73v0l-.06.05-.18.18a.6.6,0,0,1-.08.08L43,17.8h0l0,0a.23.23,0,0,0-.07.07l-.08.08a.27.27,0,0,0-.07.08l-.08.08-.07.09-.08.09-.07.08-.08.1-.07.09-.08.11-.06.09-.08.11L42,19l-.26-.14a7.58,7.58,0,0,1,1.62-1.63ZM73.07,29.91a5.74,5.74,0,0,1-.37,1.95c0-.36,0-.73,0-1.13,0-1,0-2-.1-2.83l0,.05.12.14C72.89,28.27,73.07,28.48,73.07,29.91ZM72.43,24h0l-.07.09,0,0,0,.06,0,0-.06.06,0,0h0c-.08-.41-.17-.8-.27-1.18a3.7,3.7,0,0,0,.82-.41A2.43,2.43,0,0,1,72.43,24Zm1.43-5.2A3.42,3.42,0,0,1,72.8,22h0a3.37,3.37,0,0,1-1.06.59l0-.11a8.35,8.35,0,0,0-.39-2.05,1.43,1.43,0,0,0-.94-2.5,1.55,1.55,0,0,0-.31,0,7.74,7.74,0,0,0-1.56-1.57,4.17,4.17,0,0,1,1-.25C72.93,15.65,73.69,17.83,73.86,18.79ZM69.73,14.5a5.35,5.35,0,0,1,.35.94,14.6,14.6,0,0,0-2.44.47.3.3,0,0,0-.2.23v0c-.22-.18-.45-.35-.68-.51l.17-.42c.33-.86.67-1.74.9-2.26l.4.26A4.31,4.31,0,0,1,69.73,14.5ZM59.89,8.41c.58.24,1.4.54,2.18.83,1,.35,2,.71,2.56,1a7.74,7.74,0,0,1,1.89,1.6c.3.31.59.61.85.83-.23.51-.58,1.43-1,2.4l-.12.31c-2.48-1.54-5.63-2.15-10.13-2l-.81,0c0-.56,0-1.13,0-1.62,0-.32,0-.61,0-.84a23.65,23.65,0,0,0-.24-2.61c0-.11,0-.22-.05-.33h.68A13.82,13.82,0,0,1,59.89,8.41ZM45,12.66a2.48,2.48,0,0,0,1.07-.77,5,5,0,0,1,1.51-1.62,6.26,6.26,0,0,0,.72-.37A7.94,7.94,0,0,1,50.46,9c.39-.09.86-.21,1.36-.35A18.7,18.7,0,0,1,54.53,8c0,.12,0,.25,0,.38a20.75,20.75,0,0,1,.24,2.54c0,.23,0,.51,0,.83,0,.5,0,1.08,0,1.66-4.52.28-7.92,1.27-10.32,3A21.25,21.25,0,0,1,44,13.31l.06-.06A3,3,0,0,1,45,12.66Zm-2.59,1.82c.17-.12.34-.22.5-.32a6.42,6.42,0,0,0,.57-.39,19.62,19.62,0,0,0,.5,3l-.15.13a1.56,1.56,0,0,0-.25-.17.31.31,0,0,0-.16-.16,10.71,10.71,0,0,0-2-.44A3,3,0,0,1,42.44,14.48Zm-4.72,5.05a3.18,3.18,0,0,1,3.44-2.74,7.1,7.1,0,0,1,.88.06,4.2,4.2,0,0,1,.69.14,7.9,7.9,0,0,0-1.6,1.73h0a1.43,1.43,0,0,0-1.05,2.4,10.73,10.73,0,0,0-.29,2.2l-.09,0A3.38,3.38,0,0,1,37.72,19.53Zm1.15,4,.61.26.46.16h0c-.09.37-.17.76-.24,1.15l-.06,0h0A1.93,1.93,0,0,1,38.87,23.53Zm1,12.59a2.83,2.83,0,0,0-1.42.41,3.94,3.94,0,0,1-2.21.25,5.42,5.42,0,0,0-1.53,0,4.8,4.8,0,0,0-.73.24,1.73,1.73,0,0,1-1.46,0,5,5,0,0,1-2.16-2.55.54.54,0,0,1,0-.15h0a.77.77,0,0,1,.22-.09.71.71,0,0,0,.64-.67v0a1.58,1.58,0,0,1,.43.89c.06.27.1.53.14.77a4.85,4.85,0,0,0,.21.93,1.86,1.86,0,0,0,2.25.4,4.87,4.87,0,0,1,1.91-.24l1.06,0c1-.07,1.17-.38,1.4-.92a4.34,4.34,0,0,1,.24-.5,9,9,0,0,0,.7-1.56c.06.55.13,1.07.19,1.58l.15,1.18Zm-1.31,7.07c-.7.32-1.11.27-1.48-.19l0-.07.06,0a4,4,0,0,1,.79-.52A.28.28,0,0,0,38,42a.28.28,0,0,0-.37-.12,4.45,4.45,0,0,0-.82.54,1.85,1.85,0,0,1,0-.66.79.79,0,0,1,.33-.55,9.64,9.64,0,0,1,3-.9v0c0,.15,0,.3,0,.45,0,.43,0,.86,0,1.3A7.23,7.23,0,0,1,38.56,43.19Zm5.31,23.38-.11.11a1.51,1.51,0,0,1-1.69.15,3,3,0,0,1,1-1.63.27.27,0,0,0,0-.38.26.26,0,0,0-.38,0,3.61,3.61,0,0,0-1.08,1.67,1,1,0,0,1-.1-1.26,4.68,4.68,0,0,1,2.44-1.94l.21.16.07,0,.36.26.1.06L45,64l.12.07.31.19.09.05.4.23.1,0,.32.16.14.07.11.06A6.49,6.49,0,0,0,43.87,66.57ZM71.15,65a1.08,1.08,0,0,1-.25,1.29A3,3,0,0,0,70,64.49a.28.28,0,0,0-.37.41,2.53,2.53,0,0,1,.72,1.71,1.31,1.31,0,0,1-1.55-.34l-.09-.12a7,7,0,0,0-2-2l.3-.18.08-.06.24-.15.13-.09.2-.13.12-.09.21-.15.1-.08.29-.23.07-.06.22-.18.1-.09.1-.09A4.92,4.92,0,0,1,71.15,65Zm.75-8.42a11,11,0,0,1-3.22,5.53h0A12.71,12.71,0,0,1,66.05,64h0a21.77,21.77,0,0,1-10.37,2.2,21.31,21.31,0,0,1-8.13-1.47h0q-.45-.18-.87-.39a13.68,13.68,0,0,1-2.29-1.39l-.23-.18h0a9.4,9.4,0,0,1-3.73-7.52c0-1.07,0-2.31,0-3.63,0-2.85,0-6.08.12-9.37,0-.47,0-.94,0-1.41,0-.27,0-.54,0-.81a26.82,26.82,0,0,0-.17-3.39,2.15,2.15,0,0,0,1-.49l.1-.08a7.35,7.35,0,0,0,2.16-2.41,2.17,2.17,0,0,0,.05-1.28,5.64,5.64,0,0,1,.29-3.18,5.52,5.52,0,0,0,2.79.79c2.67,0,3.83-.78,4.65-1.62a1.64,1.64,0,0,0,.13.65,1.38,1.38,0,0,0,1.2.87l.43,0,.35,0c0,.58-.06,1.17-.09,1.78A1.44,1.44,0,0,0,54.14,33a1.47,1.47,0,0,0,.74.2,1.66,1.66,0,0,0,.81-.21,1.36,1.36,0,0,0,.37-.29,1.53,1.53,0,0,0,.37.29,1.66,1.66,0,0,0,.81.21,1.33,1.33,0,0,0,1.35-1.55c0-.64-.06-1.26-.09-1.85l.49,0a1.4,1.4,0,0,0,1.18-.91,1.76,1.76,0,0,0,.1-.68c.71.7,1.78,1.3,4.6,1.3a6,6,0,0,0,3.91-1.73,5.43,5.43,0,0,0,.65,2.77,3.64,3.64,0,0,1-.1,2.48c0,.11,0,.2-.07.28s-.08.29-.11.43c-.24.86-.48,1.74.77,2.51.75.45,1.54.9,2.2,1.26,0,.66,0,1.36.06,2.18h0c0,.65.07,1.33.12,2.09l0,.41h0C72.79,48.71,73,52.07,71.9,56.56Zm3.86-15.22a1.59,1.59,0,0,1,0,.65,4.49,4.49,0,0,0-.82-.53.28.28,0,0,0-.37.12.29.29,0,0,0,.12.37,4,4,0,0,1,.79.52l.06.05-.05.07c-.36.45-.78.51-1.48.18A5.11,5.11,0,0,1,72.87,42l0-.3v-.31c0-.26,0-.5,0-.75v0l0-.64a9,9,0,0,1,2.68.85A.79.79,0,0,1,75.76,41.34Zm1.33-3.73a1.26,1.26,0,0,1-.71.72.34.34,0,0,1-.25,0A3.41,3.41,0,0,0,75,38a4,4,0,0,1-1.27-.34l-.9-.5-.12-.06c0-.56,0-1.1,0-1.63l.3.17a5.13,5.13,0,0,1,1.37.9,5.56,5.56,0,0,0,.75.57,1.07,1.07,0,0,0,.86.19c.59-.12,1-.75,1.29-1.22l.07-.12a7.81,7.81,0,0,1,1-1.08c.06.21.14.47.21.74A3.06,3.06,0,0,0,77.09,37.61Zm2.18-2.27-.24.1c0-.11-.06-.21-.08-.32l.64-.26.28-.11a.19.19,0,0,0,.1-.24.18.18,0,0,0-.24-.1l-.28.11-.6.25c0-.13-.07-.23-.09-.31l0,0c.41-.17,1.27-.53,1.65-.34a.3.3,0,0,1,.17.23C80.73,34.74,79.89,35.09,79.27,35.34Z"/><path d="M68.19,24.62a4.57,4.57,0,0,0,.54-1.26,5.78,5.78,0,0,0-3.31-6.57,6.89,6.89,0,0,0-5.51-.48A5,5,0,0,0,57,19.1a5.2,5.2,0,0,0,.46,4.7,7.23,7.23,0,0,0,2.63,2.52,7,7,0,0,0,3.17.69A5.6,5.6,0,0,0,68.19,24.62ZM57.27,21.14A4.76,4.76,0,1,1,62,25.73,4.68,4.68,0,0,1,57.27,21.14Zm4.15,5.11q.3,0,.6,0a5.23,5.23,0,0,0,5.31-5.14,5,5,0,0,0-1.23-3.28,5.08,5.08,0,0,1,2.1,5.36h0a4.42,4.42,0,0,1-.47,1.11A4.79,4.79,0,0,1,64,26.43,7.54,7.54,0,0,1,61.42,26.25Z"/><path d="M54.44,19.59a5,5,0,0,0-2.94-2.78,6.85,6.85,0,0,0-5.51.48,6.31,6.31,0,0,0-3.08,3.23,5.25,5.25,0,0,0-.11,3.74,4.55,4.55,0,0,0,.41.86,5.63,5.63,0,0,0,5,2.39,6.87,6.87,0,0,0,3.18-.7,7.26,7.26,0,0,0,2.09-1.76,5,5,0,0,0,1.05-1.85A5.1,5.1,0,0,0,54.44,19.59Zm-.75,4.08a5.68,5.68,0,0,1-.67,1,4.83,4.83,0,0,1-3.61,1.61,4.59,4.59,0,1,1,4.76-4.59A4.42,4.42,0,0,1,54,23a5.92,5.92,0,0,1-.28.64Zm-6.28,3.26a4.79,4.79,0,0,1-3.73-2.1,4.33,4.33,0,0,1-.36-.75,5.1,5.1,0,0,1,2.26-5.91,5,5,0,0,0-1.47,3.55,5.23,5.23,0,0,0,5.3,5.14h0A7.76,7.76,0,0,1,47.41,26.93Z"/></g></svg>